<svg version="1.1" xmlns="http://www.w3.org/2000/svg">
    <defs>
        <symbol id="bag" fill="currentColor"
             viewBox="0 0 480 480" style="enable-background:new 0 0 480 480;" xml:space="preserve">
                    <path d="M475.71,435.272h-0.04l-35.744-300.216c-0.478-4.025-3.891-7.056-7.944-7.056h-88v-24c0-57.438-46.562-104-104-104
                        s-104,46.562-104,104v24h-88c-4.053,0-7.466,3.031-7.944,7.056L4.294,435.272c-2.611,21.937,13.055,41.836,34.992,44.448
                        c1.572,0.187,3.153,0.281,4.736,0.28h391.96c22.091,0.005,40.004-17.9,40.008-39.992
                        C475.991,438.425,475.897,436.844,475.71,435.272z M151.982,104c0-48.601,39.399-88,88-88s88,39.399,88,88v24h-176V104z
                         M453.894,455.936c-4.547,5.12-11.064,8.054-17.912,8.064H44.022c-13.255,0.004-24.003-10.737-24.008-23.992
                        c0-0.949,0.056-1.897,0.168-2.84L55.086,144h80.896v56c0,4.418,3.582,8,8,8s8-3.582,8-8v-56h176v56c0,4.418,3.582,8,8,8
                        s8-3.582,8-8v-56h80.896l34.904,293.168C460.591,443.978,458.448,450.809,453.894,455.936z"/>
        </symbol>
        <symbol id="user" viewBox="0 0 512 512" fill="currentColor" >
            <path xmlns="http://www.w3.org/2000/svg" d="M68.169,447.023C71.835,449.023,159.075,496,256,496c105.008,0,184.772-47.134,188.116-49.14A8,8,0,0,0,448,440c0-64.593-19.807-123.7-55.771-166.442-25.158-29.9-56.724-50.28-91.539-59.662a104,104,0,1,0-89.38,0c-34.815,9.382-66.381,29.765-91.539,59.662C83.807,316.3,64,375.407,64,440A8,8,0,0,0,68.169,447.023ZM168,120a88,88,0,1,1,88,88A88.1,88.1,0,0,1,168,120ZM132.013,283.859C164.5,245.258,208.528,224,256,224s91.5,21.258,123.987,59.859c32.681,38.838,51.056,92.48,51.977,151.474C414.845,444.6,343.708,480,256,480c-81.11,0-157.5-35.609-175.96-44.856C81,376.223,99.367,322.656,132.013,283.859Z"/>        </symbol>
    </defs>
</svg>
